<?xml version="1.0" encoding="UTF-8"?>
<svg id="Camada_2" data-name="Camada 2" xmlns="http://www.w3.org/2000/svg" viewBox="0 0 153.64 268.25">
  <defs>
    <style>
      .cls-1 {
        fill: #006837;
      }

      .cls-1, .cls-2 {
        stroke-width: 1.05px;
      }

      .cls-1, .cls-2, .cls-3 {
        stroke: #000;
        stroke-miterlimit: 10;
      }

      .cls-2 {
        fill: red;
      }

      .cls-3 {
        fill: #8cc63f;
        stroke-width: .82px;
      }
    </style>
  </defs>
  <g id="Camada_1-2" data-name="Camada 1">
    <g>
      <polyline class="cls-1" points="60.22 192.99 23.91 197.33 56.3 211.35"/>
      <polyline class="cls-1" points="72.06 193.45 98.52 207.14 68.15 211.81"/>
      <polyline class="cls-3" points="78.28 155.73 73.89 181.14 70.5 207.97 66.08 230.14 60.23 255.89 43.32 267.5 42.02 247.33 52.53 217.3 59.76 197.7 66.9 157.43"/>
      <path class="cls-2" d="M133.04,35.91l13.33-33.67,6.74,74.17-7.81,50.85-12.22,16.07-31.58,15.93-34.65,2.2-28.59-8.13-26.99-14.2L.53,113.93l2.29-32.97,7.84-32.32,5.97-21.27s-.03-.99,3.31-.21c3.34.78,5.95,13.55,5.95,13.55l8.19,14.4,4.91,15.6,10.06,21.54,10.62,21.21,7.74,17.11,2.61,12.76-4.17,8.22-9.87,2.62-14.51-4.05-9.39-17.31-1.76-20.78,3.83-19.14,3.95-15.17,16.61-34.87,15.02-14.88,11.8-11.69,10.24-8.56,10.52.28,4.57,4.68,6.87,7.52,3.56,7.73,1.32,6.88,4.73,9.65,3.56,7.73,3.71,12.69,2.03,15.29,1.11,14.35-1.9,10.07-4.04,12.19-5.15,12.26-10.73,10.63-10.88,5.66-8.74,3.54-8.8,1.55-13.19,2.83"/>
    </g>
  </g>
</svg>